#N canvas 1819 410 450 404 10;
#X obj 122 247 outlet~;
#X obj 123 172 *~;
#X obj 182 172 *~;
#X floatatom 276 249 5 0 0 0 - - -, f 5;
#X floatatom 269 166 5 0 1 0 - - -, f 5;
#X floatatom 358 248 5 0 0 0 - - -, f 5;
#X obj 361 127 * -1;
#X floatatom 360 173 5 0 1 0 - - -, f 5;
#X obj 361 149 + 2;
#X obj 272 206 moses 1;
#X obj 114 92 inlet~;
#X obj 190 94 inlet~;
#X text 107 69 dry;
#X text 196 71 wet;
#X obj 359 207 moses 1;
#X obj 320 30 vsl 15 128 0 2 0 0 empty empty empty 0 -9 0 10 #fcfcfc
#000000 #000000 0 1;
#X obj 340 10 inlet;
#X connect 1 0 0 0;
#X connect 2 0 0 0;
#X connect 3 0 2 1;
#X connect 4 0 9 0;
#X connect 5 0 1 1;
#X connect 6 0 8 0;
#X connect 7 0 14 0;
#X connect 8 0 7 0;
#X connect 9 0 3 0;
#X connect 10 0 1 0;
#X connect 11 0 2 0;
#X connect 14 0 5 0;
#X connect 15 0 4 0;
#X connect 15 0 6 0;
#X connect 16 0 15 0;
